# xmcd
#
# Track frame offsets:
#	150
#	17883
#	25951
#	37432
#	48279
#	68875
#	83722
#	96710
#	109806
#	121604
#	135826
#
# Disc length: 2007 seconds
#
# Revision: 0
# Processed by: cddbd v1.5.2PL0 Copyright (c) Steve Scherf et al.
# Submitted via: EasyCDDAExtractor 15.2.5.1
#
DISCID=9207d50b
DTITLE=씨 없는 수박 김대중 - 1집 씨 없는 수박 (2013) by oreum.com
DYEAR=2013
DGENRE=Blues
TTITLE0=씨 없는 수박 Part 1, 2
TTITLE1=불효자는 놉니다
TTITLE2=틀니 블루스
TTITLE3=어째야 하나
TTITLE4=수상한 이불
TTITLE5=300/30
TTITLE6=Blues to Muddy
TTITLE7=햇볕정책
TTITLE8=돈 보다 먼저 사람이 될게요
TTITLE9=유정천리
TTITLE10=요양원 블루스
EXTD=
EXTT0=
EXTT1=
EXTT2=
EXTT3=
EXTT4=
EXTT5=
EXTT6=
EXTT7=
EXTT8=
EXTT9=
EXTT10=
PLAYORDER=
